<svg width="155" height="155" viewBox="0 0 155 155" fill="none" xmlns="http://www.w3.org/2000/svg">
<g clip-path="url(#clip0_568_2533)">
<path d="M77.25 154.5C119.914 154.5 154.5 119.914 154.5 77.25C154.5 34.586 119.914 0 77.25 0C34.586 0 0 34.586 0 77.25C0 119.914 34.586 154.5 77.25 154.5Z" fill="#DD7335"/>
<path d="M32.0901 102.98C32.0901 103.63 31.6401 103.98 30.8901 103.98C30.1401 103.98 29.6602 103.62 29.6602 102.98V91.6599C29.6602 90.0199 30.3301 89.3799 31.9001 89.3799H35.9001C39.0101 89.3799 40.7202 90.9099 40.7202 93.7299C40.7202 96.5499 38.9201 98.2999 35.8301 98.2999H32.0901V102.98ZM35.7502 96.1599C36.0757 96.2036 36.4069 96.1732 36.7191 96.0709C37.0312 95.9686 37.3162 95.7971 37.5527 95.5692C37.7893 95.3413 37.9713 95.0629 38.0851 94.7548C38.199 94.4467 38.2417 94.1168 38.2101 93.7899C38.2101 92.3299 37.3302 91.5399 35.7502 91.5399H32.6302C32.2702 91.5399 32.0901 91.7699 32.0901 92.1299V96.1299L35.7502 96.1599Z" fill="#EFF1E8"/>
<path d="M43.1404 103.27C43.0781 103.484 42.9458 103.672 42.7645 103.802C42.5833 103.933 42.3636 103.999 42.1404 103.99C41.9802 103.992 41.821 103.965 41.6704 103.91C41.4172 103.865 41.1865 103.736 41.0158 103.544C40.8452 103.351 40.7446 103.107 40.7305 102.85C40.7307 102.716 40.7579 102.583 40.8105 102.46L45.4705 90.4598C45.5954 90.0854 45.8406 89.7627 46.168 89.542C46.4953 89.3214 46.8865 89.2151 47.2805 89.2398C47.6752 89.2179 48.0663 89.3252 48.3946 89.5453C48.723 89.7654 48.9707 90.0864 49.1005 90.4598L53.7805 102.46C53.8423 102.584 53.8731 102.721 53.8705 102.86C53.8407 103.115 53.7257 103.352 53.5443 103.534C53.3628 103.715 53.1254 103.83 52.8705 103.86C52.7201 103.898 52.5656 103.918 52.4105 103.92C52.1873 103.929 51.9676 103.863 51.7864 103.732C51.6051 103.602 51.4728 103.414 51.4105 103.2L50.2305 99.9199H44.3604L43.1404 103.27ZM49.4604 97.8298L47.9305 93.6599C47.6601 92.9315 47.4363 92.1866 47.2605 91.4298C47.0605 92.2198 46.8705 92.9399 46.6205 93.6599L45.0905 97.8298H49.4604Z" fill="#EFF1E8"/>
<path d="M64.7796 103.03C64.7615 102.881 64.7615 102.73 64.7796 102.58C64.6224 102.806 64.4339 103.008 64.2196 103.18C63.3541 103.829 62.3015 104.18 61.2196 104.18C56.9796 104.18 54.5996 101.12 54.5996 96.6001C54.5996 92.4301 56.7996 89.0801 61.1996 89.0801C62.305 89.005 63.4076 89.2631 64.3649 89.8211C65.3222 90.3791 66.0902 91.2112 66.5696 92.2101C66.634 92.3585 66.668 92.5184 66.6696 92.6801C66.6489 92.9098 66.5597 93.128 66.4135 93.3063C66.2673 93.4846 66.0708 93.6149 65.8496 93.6801C65.6459 93.7452 65.4335 93.7789 65.2196 93.7801C65.0076 93.795 64.7964 93.742 64.6166 93.6287C64.4368 93.5154 64.2977 93.3478 64.2196 93.1501C63.982 92.5609 63.5634 92.0624 63.0243 91.7263C62.4851 91.3903 61.8532 91.234 61.2196 91.2801C58.6096 91.2801 57.2196 93.3901 57.2196 96.5901C57.2196 100.06 58.8596 101.9 61.3596 101.9C61.7738 101.936 62.1909 101.889 62.5868 101.762C62.9826 101.635 63.3493 101.43 63.6656 101.161C63.9819 100.891 64.2415 100.561 64.4293 100.19C64.6171 99.8192 64.7294 99.4148 64.7596 99.0001V98.7501C64.7596 98.4801 64.6896 98.3001 64.3696 98.3001H62.2796C62.1404 98.3102 62.0008 98.2892 61.8708 98.2386C61.7407 98.188 61.6236 98.1091 61.5278 98.0076C61.4321 97.9062 61.3601 97.7846 61.3172 97.6519C61.2743 97.5191 61.2614 97.3785 61.2796 97.2401C61.2796 96.6101 61.6096 96.1301 62.2796 96.1301H65.0496C66.5096 96.1301 66.9696 96.6301 66.9696 98.1301V103.13C66.9702 103.269 66.9417 103.407 66.8859 103.535C66.8301 103.662 66.7482 103.777 66.6456 103.871C66.543 103.965 66.4219 104.037 66.29 104.082C66.1581 104.126 66.0183 104.143 65.8796 104.13C65.1196 104.13 64.8096 103.76 64.8096 103.36L64.7796 103.03Z" fill="#EFF1E8"/>
<path d="M71.8597 101.07C71.8597 101.45 72.1097 101.63 72.4897 101.63H78.7697C79.3797 101.63 79.7197 102.11 79.7197 102.74C79.7364 102.877 79.7245 103.016 79.6849 103.148C79.6453 103.28 79.5788 103.402 79.4896 103.508C79.4004 103.613 79.2904 103.698 79.1665 103.759C79.0426 103.82 78.9075 103.854 78.7697 103.86H71.6597C70.0997 103.86 69.4297 103.19 69.4297 101.58V91.6599C69.4297 90.0399 70.0997 89.3799 71.6597 89.3799H78.5697C79.1797 89.3799 79.5097 89.8499 79.5097 90.4699C79.5097 91.0899 79.1797 91.5899 78.5697 91.5899H72.4197C72.0397 91.5899 71.8597 91.7899 71.8597 92.2199V95.2199H77.7097C78.3197 95.2199 78.6397 95.6899 78.6397 96.2999C78.6506 96.4321 78.6351 96.5651 78.5941 96.6913C78.5531 96.8174 78.4874 96.9341 78.4008 97.0346C78.3143 97.1351 78.2086 97.2174 78.09 97.2767C77.9713 97.336 77.842 97.371 77.7097 97.3799H71.8597V101.07Z" fill="#EFF1E8"/>
<path d="M87.4297 91.6799C86.8197 91.6799 86.5098 91.1199 86.5098 90.5099C86.5098 89.8999 86.8197 89.3799 87.4297 89.3799H97.5398C98.1498 89.3799 98.4597 89.8999 98.4597 90.5099C98.4597 91.1199 98.1398 91.6799 97.5398 91.6799H93.7397V103C93.7397 103.63 93.2598 104 92.4998 104C91.7398 104 91.2397 103.64 91.2397 103V91.6799H87.4297Z" fill="#EFF1E8"/>
<path d="M112.29 96.5903C112.29 101.18 109.76 104.18 105.71 104.18C101.66 104.18 99.0498 101.23 99.0498 96.5903C99.0498 91.9503 101.61 89.0703 105.69 89.0703C109.77 89.0703 112.29 92.0403 112.29 96.5903ZM101.62 96.5903C101.62 99.8503 103.19 101.92 105.69 101.92C108.19 101.92 109.69 99.9203 109.69 96.4803C109.69 93.3203 108.16 91.2803 105.69 91.2803C103.22 91.2803 101.62 93.3503 101.62 96.6103V96.5903Z" fill="#EFF1E8"/>
<path d="M116.93 102.98C116.93 103.63 116.48 103.98 115.73 103.98C114.98 103.98 114.5 103.62 114.5 102.98V91.6599C114.5 90.0199 115.17 89.3799 116.74 89.3799H120.74C123.85 89.3799 125.56 90.9099 125.56 93.7299C125.56 96.5499 123.76 98.2999 120.67 98.2999H116.92L116.93 102.98ZM120.59 96.1599C120.922 96.2116 121.262 96.1857 121.583 96.0843C121.903 95.9828 122.196 95.8086 122.438 95.5753C122.68 95.3419 122.865 95.0557 122.978 94.739C123.091 94.4223 123.129 94.0838 123.09 93.7499C123.09 92.2899 122.21 91.4999 120.63 91.4999H117.51C117.15 91.4999 116.97 91.7299 116.97 92.0899V96.0899L120.59 96.1599Z" fill="#EFF1E8"/>
<path d="M102.51 69.3604H52L77.23 36.3604L102.51 69.3604Z" fill="#EFF1E8" stroke="#EFF1E8" stroke-width="1.5" stroke-linejoin="round"/>
</g>
<defs>
<clipPath id="clip0_568_2533">
<rect width="154.5" height="154.5" fill="white"/>
</clipPath>
</defs>
</svg>
